<?xml version="1.0" standalone="no"?>
<!DOCTYPE svg PUBLIC "-//W3C//DTD SVG 20010904//EN"
 "http://www.w3.org/TR/2001/REC-SVG-20010904/DTD/svg10.dtd">
<svg version="1.0" xmlns="http://www.w3.org/2000/svg"
 width="260.000000pt" height="260.000000pt" viewBox="0 0 260.000000 260.000000"
 preserveAspectRatio="xMidYMid meet">
<metadata>
Created by potrace 1.11, written by Peter Selinger 2001-2013
</metadata>
<g transform="translate(0.000000,260.000000) scale(0.100000,-0.100000)"
fill="#000000" stroke="none">
<path d="M715 1980 c-2 -3 -4 -315 -4 -693 l0 -687 249 0 250 0 0 655 0 655
98 0 c119 0 196 -13 281 -46 207 -81 300 -243 265 -460 -20 -130 -109 -241
-241 -301 -50 -23 -73 -28 -173 -30 -123 -4 -148 -13 -135 -52 7 -22 38 -34
94 -35 19 -1 37 -7 41 -16 5 -8 32 -64 60 -124 84 -176 181 -255 320 -262 83
-4 130 14 130 51 0 33 -20 40 -76 26 -72 -18 -144 7 -206 71 -48 50 -123 186
-134 243 -5 28 -3 31 38 43 221 68 369 261 363 477 -4 119 -25 183 -90 270
-76 102 -195 170 -350 200 -73 14 -772 27 -780 15z"/>
</g>
</svg>
